<svg width="57" height="56" fill="none" xmlns="http://www.w3.org/2000/svg"><ellipse cx="28.5" cy="28" rx="28.5" ry="28" fill="#fff"/><path d="M41.21 18.681c1.182 0 2.146.986 2.146 2.195v14.247c0 1.21-.964 2.196-2.147 2.196H15.791c-1.183 0-2.147-.986-2.147-2.196V20.877c0-1.21.964-2.195 2.147-2.195h25.418zm0-1.681H15.79C13.702 17 12 18.74 12 20.877v14.247C12 37.26 13.701 39 15.79 39h25.42c2.089 0 3.79-1.74 3.79-3.877V20.877C45 18.74 43.299 17 41.21 17zm-2.974 6.08a.827.827 0 00-.631.298l-.008.008-9.097 9.302-9.105-9.318a.81.81 0 00-.623-.299.84.84 0 00-.826.845v7.92a.84.84 0 00.826.844.834.834 0 00.826-.845v-5.89l8.278 8.474a.817.817 0 001.247 0l8.287-8.465v5.89a.84.84 0 00.826.844.834.834 0 00.827-.845v-7.918c-.009-.472-.373-.845-.827-.845z" fill="#333"/><path d="M38.076 23.119a.83.83 0 00-.622.282l-.008.008-8.95 8.792-8.958-8.808a.81.81 0 00-.614-.282.81.81 0 00-.813.799v7.484a.81.81 0 00.813.799.804.804 0 00.813-.799v-5.566l8.145 8.01a.804.804 0 00.614.273c.247 0 .47-.11.614-.274l8.153-8.001v5.566a.81.81 0 00.813.799.804.804 0 00.813-.799v-7.485a.81.81 0 00-.813-.798z" fill="#333"/></svg>