<svg width="122" height="82" viewBox="0 0 122 82" fill="none" xmlns="http://www.w3.org/2000/svg">
<path d="M107.985 6.26732C112.357 6.26732 115.921 9.94126 115.921 14.4488V67.5512C115.921 72.0587 112.357 75.7327 107.985 75.7327H14.0147C9.64261 75.7327 6.07904 72.0587 6.07904 67.5512V14.4488C6.07904 9.94126 9.64261 6.26732 14.0147 6.26732H107.985ZM107.985 0H14.0147C6.28866 0 0 6.48343 0 14.4488V67.5512C0 75.5166 6.28866 82 14.0147 82H107.985C115.711 82 122 75.5166 122 67.5512V14.4488C122 6.48343 115.711 0 107.985 0ZM96.9951 22.6611C96.0668 22.6611 95.2283 23.0934 94.6593 23.7726C94.6593 23.7726 94.6593 23.7726 94.6294 23.8035L61 58.4744L27.3407 23.7417C26.7717 23.0625 25.9632 22.6303 25.0349 22.6303C23.3579 22.6303 21.9804 24.0505 21.9804 25.7794V55.2944C21.9804 57.0233 23.3579 58.4435 25.0349 58.4435C26.7118 58.4435 28.0893 57.0542 28.0893 55.2944V33.3434L58.6942 64.927C59.2631 65.6062 60.0717 66.0075 61 66.0075C61.9283 66.0075 62.7668 65.5753 63.3058 64.927L93.9406 33.3742V55.3253C93.9406 57.0542 95.3181 58.4744 96.9951 58.4744C98.6721 58.4744 100.05 57.0851 100.05 55.3253V25.8102C100.02 24.0504 98.6721 22.6611 96.9951 22.6611Z" fill="black"/>
</svg>
