<?xml version="1.0" standalone="no"?>
<!DOCTYPE svg PUBLIC "-//W3C//DTD SVG 20010904//EN"
 "http://www.w3.org/TR/2001/REC-SVG-20010904/DTD/svg10.dtd">
<svg version="1.0" xmlns="http://www.w3.org/2000/svg"
 width="256.000000pt" height="256.000000pt" viewBox="0 0 256.000000 256.000000"
 preserveAspectRatio="xMidYMid meet">
<metadata>
Created by potrace 1.14, written by Peter Selinger 2001-2017
</metadata>
<g transform="translate(0.000000,256.000000) scale(0.100000,-0.100000)"
fill="#000000" stroke="none">
<path d="M657 1765 c-47 -16 -81 -46 -101 -90 -14 -28 -16 -88 -16 -391 0
-343 1 -359 21 -401 14 -29 35 -52 63 -68 l43 -25 613 0 613 0 43 25 c28 16
49 39 63 68 20 41 21 58 21 401 0 330 -1 360 -19 394 -24 47 -50 70 -98 88
-56 20 -1190 19 -1246 -1z m1243 -80 c48 -25 52 -56 48 -427 l-3 -338 -28 -27
-27 -28 -610 0 -610 0 -27 28 -28 27 -3 333 c-2 182 0 347 3 366 4 18 18 44
32 57 l26 24 599 0 c514 0 603 -2 628 -15z"/>
<path d="M814 1487 c-2 -7 -3 -100 -2 -206 3 -171 5 -195 20 -205 14 -8 22 -7
35 7 15 15 19 41 23 149 l5 132 186 -193 c147 -153 190 -192 205 -187 11 3
100 90 199 193 l180 187 5 -132 c4 -108 8 -134 23 -149 13 -14 21 -15 35 -7
15 10 17 33 17 215 l0 204 -23 3 c-17 3 -66 -39 -227 -195 -113 -109 -210
-198 -215 -198 -6 0 -102 89 -214 198 -198 190 -238 220 -252 184z"/>
</g>
</svg>
